<svg width="18" height="22" viewBox="0 0 18 22" fill="none" xmlns="http://www.w3.org/2000/svg">
<path d="M0 0H10.2127C11.6404 0 12.867 0.17611 13.8914 0.527664C14.9158 0.879888 15.7123 1.4484 16.2818 2.23387C16.8506 3.02002 17.1353 4.06463 17.1353 5.36773C17.1353 7.08465 16.6797 8.4085 15.7693 9.33928C14.8581 10.2701 13.6375 10.7663 12.1067 10.8285V10.7355C13.2657 10.7562 14.2746 10.9424 15.1335 11.2939C15.9917 11.6461 16.6643 12.1885 17.1514 12.9231C17.6371 13.6577 17.8809 14.6139 17.8809 15.7931C17.8809 17.0962 17.5909 18.1877 17.012 19.0663C16.4325 19.9455 15.5891 20.6071 14.4823 21.0517C13.3749 21.497 11.9934 21.7187 10.338 21.7187H0.00134121V0H0ZM2.76287 18.7703H9.68479C11.154 18.7703 12.2252 18.5172 12.8979 18.0103C13.5698 17.5034 13.9068 16.6402 13.9068 15.4195C13.9068 14.3026 13.5604 13.4957 12.867 12.9995C12.1736 12.5033 11.1232 12.2548 9.71628 12.2548H2.9806V9.36942H9.40609C10.6683 9.36942 11.6203 9.09018 12.2621 8.53171C12.9032 7.97324 13.2248 7.09403 13.2248 5.89472C13.2248 4.79854 12.9247 4.02847 12.3244 3.58317C11.7241 3.13854 10.7614 2.91622 9.43758 2.91622H2.76354L3.78789 1.52005V20.198L2.76354 18.771L2.76287 18.7703Z" fill="#172A34"/>
</svg>
