<svg width="25" height="21" viewBox="0 0 25 21" fill="none" xmlns="http://www.w3.org/2000/svg">
<path d="M24.5095 5.84619L22.7595 0.59619C22.6986 0.415081 22.5801 0.258879 22.4221 0.15144C22.2641 0.0440007 22.0753 -0.00876932 21.8845 0.00118996H2.63445C2.44365 -0.00876932 2.25482 0.0440007 2.09682 0.15144C1.93883 0.258879 1.82034 0.415081 1.75945 0.59619L0.00945469 5.84619C-0.00315156 5.9391 -0.00315156 6.03328 0.00945469 6.12619V11.3762C0.00945469 11.6083 0.101642 11.8308 0.265736 11.9949C0.429831 12.159 0.65239 12.2512 0.884455 12.2512H1.75945V21.0012H3.50945V12.2512H8.75945V21.0012H22.7595V12.2512H23.6345C23.8665 12.2512 24.0891 12.159 24.2532 11.9949C24.4173 11.8308 24.5095 11.6083 24.5095 11.3762V6.12619C24.5221 6.03328 24.5221 5.9391 24.5095 5.84619V5.84619ZM21.0095 19.2512H10.5095V12.2512H21.0095V19.2512ZM22.7595 10.5012H19.2595V7.00119H17.5095V10.5012H13.1345V7.00119H11.3845V10.5012H7.00945V7.00119H5.25945V10.5012H1.75945V6.26619L3.26445 1.75119H21.2545L22.7595 6.26619V10.5012Z" fill="#EF8354"/>
</svg>
