<svg width="16" height="11" viewBox="0 0 16 11" fill="none" xmlns="http://www.w3.org/2000/svg">
<path d="M2.875 2.87538H8.41667M10.7917 3.66704L13.7908 1.86755C14.1048 1.67918 14.2617 1.585 14.3909 1.59704C14.5035 1.60753 14.6063 1.66571 14.6732 1.75688C14.75 1.86144 14.75 2.0445 14.75 2.41063V8.09012C14.75 8.45625 14.75 8.63931 14.6732 8.74387C14.6063 8.83504 14.5035 8.89322 14.3909 8.90372C14.2617 8.91576 14.1048 8.82157 13.7908 8.6332L10.7917 6.83371M3.03333 10.0004H8.25833C9.14508 10.0004 9.58846 10.0004 9.92715 9.8278C10.2251 9.676 10.4673 9.43379 10.6191 9.13586C10.7917 8.79717 10.7917 8.35379 10.7917 7.46704V2.40038C10.7917 1.73531 10.7917 1.40278 10.6622 1.14876C10.5484 0.92532 10.3667 0.743656 10.1433 0.629806C9.88926 0.500376 9.55673 0.500376 8.89167 0.500376H2.4C2.28493 0.500376 2.17981 0.499603 2.08333 0.500273C1.62222 0.503478 1.35845 0.522771 1.14839 0.629806C0.924944 0.743656 0.743279 0.92532 0.62943 1.14876C0.5 1.40278 0.5 1.73531 0.5 2.40038V7.46704C0.5 8.35379 0.5 8.79717 0.672573 9.13586C0.824373 9.43379 1.06659 9.676 1.36452 9.8278C1.70321 10.0004 2.14658 10.0004 3.03333 10.0004Z" stroke="#172A34" stroke-linecap="round" stroke-linejoin="round"/>
</svg>
