<svg width="21" height="22" viewBox="0 0 21 22" fill="none" xmlns="http://www.w3.org/2000/svg">
<path d="M21 20.25H0V21.75H21V20.25Z" fill="#EF8354"/>
<path d="M16.875 7.5H4.5C4.1023 7.5004 3.721 7.65856 3.43978 7.93978C3.15856 8.221 3.0004 8.6023 3 9V15C3.00117 15.9942 3.39664 16.9473 4.09964 17.6504C4.80265 18.3534 5.7558 18.7488 6.75 18.75H12.75C13.7442 18.7488 14.6973 18.3534 15.4004 17.6504C16.1034 16.9473 16.4988 15.9942 16.5 15V14.25H16.875C17.7701 14.25 18.6285 13.8944 19.2615 13.2615C19.8944 12.6285 20.25 11.7701 20.25 10.875C20.25 9.97989 19.8944 9.12145 19.2615 8.48851C18.6285 7.85558 17.7701 7.5 16.875 7.5ZM15 15C14.9993 15.5965 14.7621 16.1685 14.3403 16.5903C13.9185 17.0121 13.3465 17.2493 12.75 17.25H6.75C6.15346 17.2493 5.58155 17.0121 5.15973 16.5903C4.73792 16.1685 4.50066 15.5965 4.5 15V9H15V15ZM16.875 12.75H16.5V9H16.875C17.3723 9 17.8492 9.19754 18.2008 9.54917C18.5525 9.90081 18.75 10.3777 18.75 10.875C18.75 11.3723 18.5525 11.8492 18.2008 12.2008C17.8492 12.5525 17.3723 12.75 16.875 12.75Z" fill="#EF8354"/>
<path d="M12.75 6H11.25V5.8905C11.251 5.61176 11.1738 5.33832 11.0273 5.10121C10.8807 4.8641 10.6706 4.67281 10.4209 4.54905L8.40818 3.5427C7.90874 3.29499 7.48867 2.91233 7.1956 2.43809C6.90253 1.96385 6.74816 1.41699 6.75 0.8595V0H8.25V0.8595C8.24909 1.13823 8.32629 1.41163 8.47283 1.64873C8.61938 1.88583 8.82941 2.07713 9.07913 2.20095L11.0918 3.2073C11.5912 3.45504 12.0113 3.8377 12.3044 4.31194C12.5974 4.78617 12.7518 5.33302 12.75 5.8905V6Z" fill="#EF8354"/>
</svg>
