<svg width="15" height="21" viewBox="0 0 15 21" fill="none" xmlns="http://www.w3.org/2000/svg">
<path d="M3.47767 20.9403C3.32419 20.8755 3.19664 20.7614 3.11516 20.6161C3.03368 20.4708 3.0029 20.3025 3.02767 20.1378L4.39267 11.2503H0.770171C0.655327 11.2534 0.541309 11.23 0.436912 11.1821C0.332516 11.1341 0.240533 11.0628 0.168059 10.9737C0.0955861 10.8845 0.0445602 10.7799 0.0189189 10.6679C-0.00672253 10.5559 -0.00629395 10.4396 0.0201713 10.3278L2.27017 0.577768C2.30976 0.40997 2.40596 0.260936 2.54256 0.155753C2.67916 0.05057 2.84783 -0.00433947 3.02017 0.000268059H10.5202C10.6322 -0.00011292 10.7429 0.0246158 10.8442 0.0726373C10.9454 0.120659 11.0346 0.190753 11.1052 0.277768C11.1768 0.365767 11.2275 0.468857 11.2534 0.57928C11.2794 0.689704 11.28 0.804582 11.2552 0.915268L9.95767 6.75027H13.5202C13.6607 6.74999 13.7986 6.78921 13.9179 6.86347C14.0372 6.93774 14.1333 7.04404 14.1952 7.17027C14.2489 7.29142 14.2696 7.42465 14.2551 7.5564C14.2406 7.68814 14.1915 7.81369 14.1127 7.92027L4.36267 20.6703C4.29678 20.7679 4.20879 20.8487 4.10585 20.9061C4.00291 20.9634 3.88791 20.9957 3.77017 21.0003C3.66981 20.9984 3.57066 20.9781 3.47767 20.9403V20.9403ZM8.08267 8.25027L9.58267 1.50027H3.62017L1.71517 9.75027H6.14767L4.95517 17.4603L12.0202 8.25027H8.08267Z" fill="#EF8354"/>
</svg>
