<svg width="18" height="21" viewBox="0 0 18 21" fill="none" xmlns="http://www.w3.org/2000/svg">
<path d="M5.25 0.00326711H3.75V7.50327H5.25V0.00326711Z" fill="#EF8354"/>
<path d="M7.5 6.75327C7.5 7.54892 7.18393 8.31198 6.62132 8.87459C6.05871 9.4372 5.29565 9.75327 4.5 9.75327C3.70435 9.75327 2.94129 9.4372 2.37868 8.87459C1.81607 8.31198 1.5 7.54892 1.5 6.75327V0.00326711H0V6.75327C0.00107688 7.81592 0.378185 8.84392 1.06454 9.65519C1.75089 10.4665 2.7022 11.0087 3.75 11.1858V21.0033H5.25V11.1858C6.2978 11.0087 7.24911 10.4665 7.93546 9.65519C8.62182 8.84392 8.99892 7.81592 9 6.75327V0.00326711H7.5V6.75327Z" fill="#EF8354"/>
<path d="M13.5 0.00326715H12.75V21.0033H14.25V13.5033H16.5C16.8978 13.5033 17.2794 13.3452 17.5607 13.0639C17.842 12.7826 18 12.4011 18 12.0033V4.50327C18.0232 3.9061 17.9227 3.31059 17.7047 2.75412C17.4868 2.19766 17.1562 1.69227 16.7336 1.26969C16.311 0.847113 15.8056 0.516472 15.2491 0.298535C14.6927 0.0805969 14.0972 -0.0199299 13.5 0.00326715ZM16.5 12.0033H14.25V1.57077C16.41 1.99077 16.5 4.22577 16.5 4.50327V12.0033Z" fill="#EF8354"/>
</svg>
