<svg width="18" height="15" viewBox="0 0 18 15" fill="none" xmlns="http://www.w3.org/2000/svg">
<path d="M11.25 8.25H6.75V9.75H11.25V8.25Z" fill="#EF8354"/>
<path d="M16.0807 4.5L15.1265 1.0875C15.0359 0.774714 14.8464 0.499701 14.5864 0.30365C14.3264 0.1076 14.0098 0.00106435 13.6842 0H4.3158C3.99009 0.00108532 3.67349 0.107692 3.41347 0.303846C3.15344 0.499999 2.96398 0.775135 2.87347 1.08802L1.89862 4.5H0V6H1.5V11.25C1.5005 11.6477 1.65869 12.0289 1.93989 12.3101C2.22109 12.5913 2.60233 12.7495 3 12.75V15H4.5V12.75H13.5V15H15V12.75C15.3977 12.7495 15.7789 12.5913 16.0601 12.3101C16.3413 12.0289 16.4995 11.6477 16.5 11.25V6H18V4.5H16.0807ZM4.3158 1.5H13.6844L14.7557 5.25H3.24427L4.3158 1.5ZM15 9.75V11.25H3V9.75H4.5V8.25H3V6.75H15V8.25H13.5V9.75H15Z" fill="#EF8354"/>
</svg>
