<svg width="25" height="25" viewBox="0 0 25 25" fill="none" xmlns="http://www.w3.org/2000/svg">
<path d="M7 5.25H5.25V8.75H7V5.25Z" fill="#EF8354"/>
<path d="M7 10.5H5.25V14H7V10.5Z" fill="#EF8354"/>
<path d="M12.25 5.25H10.5V8.75H12.25V5.25Z" fill="#EF8354"/>
<path d="M12.25 10.5H10.5V14H12.25V10.5Z" fill="#EF8354"/>
<path d="M7 15.75H5.25V19.25H7V15.75Z" fill="#EF8354"/>
<path d="M12.25 15.75H10.5V19.25H12.25V15.75Z" fill="#EF8354"/>
<path d="M24.5 10.5C24.5 10.0359 24.3156 9.59075 23.9874 9.26256C23.6592 8.93438 23.2141 8.75 22.75 8.75H17.5V1.75C17.5 1.28587 17.3156 0.840752 16.9874 0.512563C16.6592 0.184374 16.2141 0 15.75 0H1.75C1.28587 0 0.840752 0.184374 0.512563 0.512563C0.184374 0.840752 0 1.28587 0 1.75V24.5H24.5V10.5ZM1.75 1.75H15.75V22.75H1.75V1.75ZM17.5 22.75V10.5H22.75V22.75H17.5Z" fill="#EF8354"/>
</svg>
