<svg width="23" height="20" viewBox="0 0 23 20" fill="none" xmlns="http://www.w3.org/2000/svg">
<path d="M11.7092 0.160308C11.5761 0.0564233 11.4121 0 11.2432 0C11.0743 0 10.9103 0.0564233 10.7772 0.160308L0 8.56451L0.932025 9.74328L2.25 8.71563V18C2.25081 18.3975 2.40911 18.7786 2.69024 19.0597C2.97137 19.3409 3.35242 19.4991 3.75 19.5H18.75C19.1476 19.4992 19.5287 19.341 19.8099 19.0598C20.091 18.7787 20.2493 18.3976 20.25 18V8.72246L21.568 9.74996L22.5 8.57111L11.7092 0.160308ZM12.75 18H9.75V12H12.75V18ZM14.25 18V12C14.2495 11.6023 14.0914 11.221 13.8102 10.9398C13.529 10.6586 13.1477 10.5004 12.75 10.5H9.75C9.3523 10.5004 8.971 10.6585 8.68978 10.9397C8.40856 11.221 8.2504 11.6023 8.25 12V18H3.75V7.54608L11.25 1.70358L18.75 7.55396V18H14.25Z" fill="#EF8354"/>
</svg>
