<svg width="24" height="23" viewBox="0 0 24 23" fill="none" xmlns="http://www.w3.org/2000/svg">
<path d="M21.1502 15.2389C21.0624 14.0845 20.6966 12.8122 19.9657 11.497C20.7991 9.99172 21.1649 8.55202 21.1649 7.26567V7.2583C21.1649 3.92557 18.6861 1.61603 15.2566 1.8571C14.0943 1.94482 12.8214 2.3178 11.5056 3.04836C9.99956 2.21535 8.55917 1.84236 7.27219 1.84236C3.93048 1.84236 1.61983 4.31998 1.86101 7.75516C1.94877 8.9096 2.32193 10.1819 3.05285 11.497C2.21943 13.0024 1.84627 14.4494 1.84627 15.7358V15.7431C1.85364 19.0685 4.32508 21.378 7.75455 21.137C8.91692 21.0566 10.1818 20.6836 11.5056 19.9531C13.0116 20.7861 14.452 21.1517 15.739 21.1517H15.7464C19.0807 21.1517 21.3914 18.6667 21.1502 15.2389ZM11.5056 19.4267C7.12547 19.4267 3.57943 15.8751 3.57943 11.497C3.57943 7.11902 7.12547 3.57469 11.5056 3.57469C15.8857 3.57469 19.4318 7.12638 19.4318 11.497C19.4318 15.8677 15.8851 19.4267 11.5056 19.4267Z" fill="#172A34"/>
<path d="M21.1649 7.26587V7.2585C20.2142 6.38866 18.9058 5.68689 17.2309 5.27775C16.7486 3.84541 16.0686 2.70504 15.2566 1.85729C12.9098 -0.62769 9.52384 -0.605592 7.27214 1.84256C6.40188 2.79276 5.6924 4.10791 5.28306 5.78197C3.85004 6.26411 2.70911 6.94378 1.86096 7.75536C-0.632595 10.1011 -0.603119 13.4854 1.84622 15.736V15.7433C2.79687 16.6132 4.11333 17.315 5.78753 17.7241C6.26252 19.1564 6.94252 20.2894 7.7545 21.1372C10.1013 23.6295 13.4873 23.6074 15.739 21.1519H15.7463C16.6166 20.2017 17.3261 18.8933 17.728 17.2199C19.1611 16.7377 20.302 16.0581 21.1501 15.2391C23.6437 12.9001 23.6142 9.51648 21.1649 7.26587ZM11.5055 19.427C7.12542 19.427 3.57938 15.8753 3.57938 11.4972C3.57938 7.11922 7.12542 3.57489 11.5055 3.57489C15.8857 3.57489 19.4317 7.12658 19.4317 11.4972C19.4317 15.8679 15.885 19.427 11.5055 19.427Z" fill="#172A34"/>
</svg>
