<svg width="23" height="20" viewBox="0 0 23 20" fill="none" xmlns="http://www.w3.org/2000/svg">
<path d="M22.5499 6.43125C22.4678 6.33521 22.3658 6.2581 22.251 6.20523C22.1362 6.15236 22.0113 6.12499 21.8849 6.125H16.6349V2.625C16.6349 1.92881 16.3583 1.26113 15.8661 0.768845C15.3738 0.276562 14.7061 0 14.0099 0H8.75991C8.06371 0 7.39603 0.276562 6.90375 0.768845C6.41147 1.26113 6.13491 1.92881 6.13491 2.625V6.125H0.884908C0.758074 6.12356 0.632443 6.14972 0.516721 6.20166C0.400998 6.2536 0.297952 6.33007 0.21472 6.42579C0.131489 6.5215 0.0700623 6.63417 0.0346972 6.75599C-0.000667966 6.8778 -0.00912624 7.00584 0.00990833 7.13125L1.65491 17.7625C1.71819 18.1798 1.93015 18.5602 2.25174 18.8335C2.57333 19.1069 2.98287 19.2548 3.40491 19.25H19.3824C19.8044 19.2548 20.214 19.1069 20.5356 18.8335C20.8572 18.5602 21.0691 18.1798 21.1324 17.7625L22.7599 7.13125C22.7774 7.00633 22.7677 6.8791 22.7315 6.75828C22.6952 6.63745 22.6333 6.5259 22.5499 6.43125ZM7.88491 2.625C7.88491 2.39294 7.9771 2.17038 8.14119 2.00628C8.30528 1.84219 8.52784 1.75 8.75991 1.75H14.0099C14.242 1.75 14.4645 1.84219 14.6286 2.00628C14.7927 2.17038 14.8849 2.39294 14.8849 2.625V6.125H7.88491V2.625ZM19.3824 17.5H3.38741L1.90866 7.875H20.8612L19.3824 17.5Z" fill="#EF8354"/>
</svg>
