<svg width="24" height="17" viewBox="0 0 24 17" fill="none" xmlns="http://www.w3.org/2000/svg">
<path d="M19.5 7.5C19.4341 7.5 19.3702 7.50698 19.305 7.5099L18.1776 2.25H21V0.75H17.25C17.1381 0.749967 17.0277 0.774964 16.9267 0.823161C16.8257 0.871358 16.7368 0.941533 16.6665 1.02855C16.5962 1.11556 16.5462 1.2172 16.5202 1.32603C16.4943 1.43486 16.493 1.54811 16.5165 1.6575L16.965 3.75H9.2904L8.5404 1.5H10.5V0H5.25V1.5H6.96L7.74083 3.84225L5.81333 7.69665C4.93857 7.42874 4.00293 7.43382 3.13113 7.71121C2.25932 7.9886 1.49278 8.52513 0.933675 9.24927C0.374569 9.97341 0.04946 10.8508 0.00168595 11.7644C-0.0460881 12.678 0.185742 13.5845 0.666274 14.363C1.14681 15.1415 1.85321 15.755 2.69132 16.1218C3.52944 16.4887 4.45945 16.5913 5.35738 16.4161C6.25531 16.2409 7.07851 15.7961 7.71724 15.1411C8.35597 14.4862 8.7799 13.652 8.9325 12.75H10.89C11.115 12.7505 11.3372 12.7002 11.54 12.6028C11.7428 12.5054 11.921 12.3634 12.0612 12.1875L17.355 5.56935L17.8377 7.82228C16.8002 8.238 15.955 9.0256 15.4671 10.0312C14.9793 11.0368 14.8838 12.1882 15.1995 13.2604C15.5151 14.3325 16.2192 15.2485 17.1741 15.8294C18.129 16.4103 19.2661 16.6143 20.3634 16.4015C21.4606 16.1888 22.4392 15.5746 23.1078 14.679C23.7765 13.7834 24.0872 12.6706 23.9793 11.5582C23.8714 10.4457 23.3526 9.41343 22.5243 8.663C21.696 7.91257 20.6177 7.4979 19.5 7.5ZM4.5 15C4.07873 15.0012 3.66194 14.9136 3.27676 14.743C2.89159 14.5723 2.54667 14.3225 2.26445 14.0097C1.98224 13.697 1.76906 13.3283 1.63879 12.9276C1.50853 12.527 1.46411 12.1035 1.50841 11.6845C1.55271 11.2656 1.68475 10.8607 1.89593 10.4962C2.1071 10.1316 2.39268 9.81568 2.73408 9.56886C3.07547 9.32204 3.46502 9.14988 3.87736 9.0636C4.2897 8.97732 4.71559 8.97886 5.1273 9.0681L3.82913 11.6645L3.83588 11.6678C3.78154 11.7703 3.75212 11.8841 3.75 12C3.74885 12.1688 3.80506 12.333 3.90943 12.4656C4.0138 12.5983 4.16014 12.6916 4.32447 12.7302C4.48879 12.7688 4.66136 12.7504 4.81389 12.6781C4.96641 12.6058 5.08985 12.4838 5.16398 12.3322L5.17088 12.3355L6.46365 9.75C6.92612 10.1489 7.25525 10.6799 7.40669 11.2715C7.55814 11.8632 7.52463 12.487 7.31068 13.059C7.09672 13.6311 6.71261 14.1238 6.21007 14.4708C5.70754 14.8178 5.11072 15.0025 4.5 15ZM8.9325 11.25C8.73615 10.0958 8.09763 9.06367 7.15253 8.3727L8.41155 5.85465L10.2098 11.25H8.9325ZM11.5258 10.455L9.7905 5.25H15.6895L11.5258 10.455ZM19.5 15C18.8248 15.002 18.1687 14.7754 17.6386 14.3572C17.1085 13.939 16.7355 13.3537 16.5802 12.6965C16.425 12.0394 16.4967 11.349 16.7836 10.7378C17.0705 10.1266 17.5558 9.63039 18.1606 9.33L18.7665 12.1575L18.7815 12.1542C18.8145 12.321 18.904 12.4713 19.0349 12.5798C19.1657 12.6883 19.33 12.7484 19.5 12.75C19.6989 12.75 19.8897 12.671 20.0303 12.5303C20.171 12.3897 20.25 12.1989 20.25 12C20.2454 11.9476 20.2349 11.8959 20.2189 11.8458L20.2339 11.8425L19.6274 9.01282C20.411 9.04466 21.1509 9.38261 21.688 9.95405C22.2251 10.5255 22.5167 11.2848 22.5 12.0689C22.4833 12.853 22.1597 13.5992 21.5988 14.1473C21.0378 14.6954 20.2842 15.0015 19.5 15Z" fill="#EF8354"/>
</svg>
