<svg width="20" height="25" viewBox="0 0 20 25" fill="none" xmlns="http://www.w3.org/2000/svg">
<path d="M9.62501 14C8.75972 14 7.91385 13.7434 7.19439 13.2627C6.47492 12.7819 5.91417 12.0987 5.58304 11.2992C5.2519 10.4998 5.16526 9.62015 5.33407 8.77148C5.50288 7.92281 5.91956 7.14326 6.53142 6.53141C7.14327 5.91955 7.92282 5.50287 8.77149 5.33406C9.62016 5.16525 10.4998 5.25189 11.2992 5.58303C12.0987 5.91416 12.782 6.47492 13.2627 7.19438C13.7434 7.91385 14 8.75971 14 9.625C13.9987 10.7849 13.5373 11.8969 12.7171 12.7171C11.897 13.5373 10.7849 13.9987 9.62501 14ZM9.62501 7C9.10583 7 8.59832 7.15395 8.16664 7.44239C7.73496 7.73083 7.3985 8.1408 7.19982 8.62046C7.00114 9.10011 6.94916 9.62791 7.05045 10.1371C7.15173 10.6463 7.40174 11.114 7.76885 11.4812C8.13597 11.8483 8.6037 12.0983 9.1129 12.1996C9.6221 12.3008 10.1499 12.2489 10.6296 12.0502C11.1092 11.8515 11.5192 11.5151 11.8076 11.0834C12.0961 10.6517 12.25 10.1442 12.25 9.625C12.2492 8.92904 11.9724 8.26181 11.4803 7.76969C10.9882 7.27757 10.321 7.00076 9.62501 7Z" fill="#EF8354"/>
<path d="M9.62501 24.5L2.24395 15.7949C2.20203 15.7449 1.93927 15.3998 1.93927 15.3998C0.678311 13.739 -0.00294583 11.7103 9.57527e-06 9.625C9.57527e-06 7.07229 1.01407 4.62413 2.81911 2.8191C4.62414 1.01406 7.0723 0 9.62501 0C12.1777 0 14.6259 1.01406 16.4309 2.8191C18.236 4.62413 19.25 7.07229 19.25 9.625C19.2531 11.7094 18.5724 13.7373 17.3121 15.3976L17.3107 15.3998C17.3107 15.3998 17.0482 15.7449 17.0091 15.7913L9.62501 24.5ZM3.33595 14.3456C3.33595 14.3456 3.54017 14.6153 3.58672 14.6732L9.62501 21.7944L15.6713 14.6632C15.7097 14.6149 15.9152 14.3432 15.9152 14.3432C16.9453 12.9861 17.502 11.3287 17.5 9.625C17.5 7.53642 16.6703 5.53338 15.1935 4.05653C13.7166 2.57969 11.7136 1.75 9.62501 1.75C7.53643 1.75 5.53339 2.57969 4.05654 4.05653C2.57969 5.53338 1.75001 7.53642 1.75001 9.625C1.74807 11.3297 2.30518 12.9879 3.33595 14.3456Z" fill="#EF8354"/>
</svg>
