<svg width="18" height="23" viewBox="0 0 18 23" fill="none" xmlns="http://www.w3.org/2000/svg">
<path d="M13.125 0H4.375C3.21508 0.00132005 2.10305 0.46268 1.28287 1.28287C0.46268 2.10305 0.00132005 3.21508 0 4.375V14.875C0.00325027 15.8155 0.310072 16.7297 0.874806 17.4818C1.43954 18.2338 2.232 18.7834 3.13425 19.0488L1.54814 22.75H3.45196L4.95197 19.25H12.548L14.048 22.75H15.9519L14.3657 19.0488C15.268 18.7834 16.0605 18.2338 16.6252 17.4818C17.1899 16.7297 17.4967 15.8155 17.5 14.875V4.375C17.4987 3.21508 17.0373 2.10305 16.2171 1.28287C15.3969 0.46268 14.2849 0.00132005 13.125 0V0ZM4.375 1.75H13.125C13.6661 1.75164 14.1934 1.92073 14.6345 2.23407C15.0757 2.54741 15.409 2.98963 15.5887 3.5H1.91126C2.091 2.98963 2.42432 2.54741 2.86545 2.23407C3.30659 1.92073 3.83391 1.75164 4.375 1.75V1.75ZM15.75 14H13.125V15.75H15.5887C15.409 16.2604 15.0757 16.7026 14.6345 17.0159C14.1934 17.3293 13.6661 17.4984 13.125 17.5H4.375C3.83391 17.4984 3.30659 17.3293 2.86545 17.0159C2.42432 16.7026 2.091 16.2604 1.91126 15.75H4.375V14H1.75V12.25H15.75V14ZM15.75 10.5H1.75V5.25H15.75V10.5Z" fill="#EF8354"/>
</svg>
