<svg width="24" height="25" viewBox="0 0 24 25" fill="none" xmlns="http://www.w3.org/2000/svg">
<path d="M8.75 24.5H6.125V22.75H8.75V11.8706L5.67473 10.0253L6.57527 8.52486L9.65064 10.3697C9.90909 10.526 10.123 10.7461 10.2717 11.009C10.4205 11.2719 10.4991 11.5686 10.5 11.8706V22.75C10.4995 23.214 10.3149 23.6588 9.98685 23.9868C9.65877 24.3149 9.21397 24.4995 8.75 24.5Z" fill="#EF8354"/>
<path d="M17.5 24.5H14.875C14.411 24.4994 13.9662 24.3149 13.6382 23.9868C13.3101 23.6588 13.1256 23.214 13.125 22.75V13.125H18.375C18.8639 13.125 19.3473 13.0226 19.7942 12.8243C20.2411 12.6261 20.6415 12.3365 20.9696 11.9742C21.2978 11.6118 21.5464 11.1847 21.6995 10.7204C21.8525 10.2562 21.9067 9.76497 21.8584 9.2785C21.7413 8.3934 21.3022 7.58249 20.6249 7.00074C19.9476 6.419 19.0798 6.10722 18.1871 6.125H16.8014L16.6469 5.44337C16.1455 3.23409 14.0269 1.75 11.375 1.75C10.3735 1.75319 9.39367 2.04182 8.55038 2.58205C7.70708 3.12227 7.03526 3.89171 6.61369 4.80016L6.34375 5.38396L5.58863 5.28395C5.47668 5.26472 5.36353 5.25337 5.25 5.25C4.32174 5.25 3.4315 5.61875 2.77513 6.27513C2.11875 6.9315 1.75 7.82174 1.75 8.75C1.75 9.67826 2.11875 10.5685 2.77513 11.2249C3.4315 11.8813 4.32174 12.25 5.25 12.25V14C3.85761 14 2.52226 13.4469 1.53769 12.4623C0.553123 11.4777 0 10.1424 0 8.75C0 7.35761 0.553123 6.02226 1.53769 5.03769C2.52226 4.05312 3.85761 3.5 5.25 3.5C5.2731 3.5 5.29594 3.5 5.31877 3.50087C5.93437 2.43906 6.81745 1.55709 7.88005 0.942846C8.94264 0.3286 10.1476 0.00352145 11.375 0C14.594 0 17.2308 1.7304 18.1577 4.375H18.1871C19.5143 4.36018 20.8004 4.83523 21.7992 5.70926C22.798 6.58329 23.4395 7.79493 23.6009 9.11234C23.6723 9.84156 23.5903 10.5777 23.3602 11.2733C23.1301 11.9689 22.7569 12.6087 22.2647 13.1515C21.7725 13.6942 21.1721 14.128 20.5022 14.4248C19.8323 14.7216 19.1077 14.875 18.375 14.875H14.875V22.75H17.5V24.5Z" fill="#EF8354"/>
</svg>
