<svg width="12" height="23" viewBox="0 0 12 23" fill="none" xmlns="http://www.w3.org/2000/svg">
<path d="M9.69618 7.25005V7.24268C8.74553 6.37284 7.43644 5.67107 5.76224 5.26193C5.27987 3.82959 4.59987 2.69659 3.7879 1.84884C2.68382 0.672304 1.34593 0.0582575 0 0V3.55907H0.029482C4.40961 3.55907 7.95565 7.11076 7.95565 11.4888C7.95565 15.8668 4.40961 19.4111 0.029482 19.4111H0V22.9628C1.52815 23.0653 3.05631 22.4586 4.27026 21.1428C5.14052 20.1926 5.84933 18.8774 6.25934 17.2034C7.69236 16.7212 8.83328 16.0416 9.68144 15.23C12.175 12.8843 12.1455 9.49999 9.69618 7.24938V7.25005Z" fill="#172A34"/>
</svg>
