<svg width="35" height="23" viewBox="0 0 35 23" fill="none" xmlns="http://www.w3.org/2000/svg">
<path d="M34.6592 6.98889V22.0662H30.3159V7.69066C30.3159 6.67484 30.1625 5.84182 29.8697 5.18358C29.5696 4.52601 29.0946 4.05057 28.4367 3.75125C27.7788 3.45862 26.9085 3.30528 25.8192 3.30528C24.4813 3.30528 23.3625 3.56107 22.4701 4.07267C21.5777 4.5769 20.8763 5.47621 20.3497 6.76189C19.8962 7.88753 19.6114 9.36339 19.4942 11.1982V22.0655H15.0779V7.68999C15.0779 6.67417 14.9245 5.84115 14.6317 5.18291C14.3322 4.52534 13.8566 4.0499 13.1987 3.75058C12.5408 3.45795 11.6926 3.30461 10.6542 3.30461C9.31632 3.30461 8.19014 3.5604 7.29039 4.072C6.38395 4.57623 5.67448 5.47554 5.1479 6.76122C4.70171 7.87213 4.42368 9.31919 4.29974 11.1098V22.0649H0V0.381018H4.29974V6.47596C4.44579 5.89874 4.62131 5.36505 4.81895 4.88292C5.5358 3.11443 6.53 1.85687 7.78749 1.11158C9.05235 0.373652 10.6026 0.00067028 12.4376 0.00067028C14.8139 0.00067028 16.5833 0.599985 17.7537 1.80598C18.8356 2.92426 19.4131 4.50257 19.4794 6.54158C19.6255 5.94227 19.8084 5.38715 20.0208 4.88225C20.7591 3.11376 21.7613 1.8562 23.0114 1.11091C24.2616 0.372982 25.8044 0 27.6401 0C30.0164 0 31.7784 0.599317 32.934 1.80531C34.089 3.00395 34.6598 4.7289 34.6598 6.98688L34.6592 6.98889Z" fill="#172A34"/>
</svg>
